<svg width="768" height="771" viewBox="0 0 768 771" fill="none" xmlns="http://www.w3.org/2000/svg">
<g filter="url(#filter0_d_33401_3)">
<mask id="path-1-inside-1_33401_3" fill="white">
<path d="M477.849 585.437C475.401 585.437 473.027 584.604 471.112 583.073C469.198 581.543 467.858 579.406 467.311 577.011C466.763 574.616 467.041 572.106 468.099 569.891C469.157 567.676 470.933 565.886 473.135 564.815C482.445 560.31 491.347 555.001 499.741 548.947C502.07 547.385 504.913 546.791 507.67 547.291C510.427 547.791 512.883 549.346 514.52 551.629C516.157 553.912 516.848 556.743 516.446 559.527C516.045 562.311 514.582 564.829 512.367 566.552C502.957 573.328 492.981 579.276 482.551 584.33C481.087 585.05 479.479 585.429 477.849 585.437Z"/>
<path d="M382.378 607.795C337.477 607.795 293.583 594.428 256.249 569.383C218.914 544.339 189.816 508.742 172.633 467.094C155.449 425.447 150.954 379.619 159.713 335.406C168.473 291.194 190.096 250.582 221.846 218.706C253.596 186.83 294.049 165.123 338.087 156.328C382.126 147.534 427.774 152.047 469.258 169.298C510.741 186.549 546.198 215.763 571.144 253.245C596.09 290.726 609.405 334.793 609.405 379.872C609.405 383.682 609.286 387.372 609.059 391.181C608.838 394.037 607.518 396.695 605.379 398.591C603.24 400.487 600.45 401.473 597.6 401.34C594.738 401.161 592.065 399.849 590.167 397.692C588.27 395.534 587.303 392.708 587.481 389.835C587.686 386.482 587.784 383.226 587.784 379.872C587.784 339.086 575.737 299.216 553.167 265.304C530.596 231.392 498.516 204.961 460.983 189.353C423.451 173.745 382.15 169.661 342.306 177.618C302.461 185.575 265.861 205.215 237.135 234.055C208.408 262.895 188.845 299.639 180.92 339.641C172.994 379.643 177.062 421.106 192.608 458.787C208.155 496.469 234.482 528.675 268.261 551.335C302.04 573.994 341.753 586.088 382.378 586.088C385.621 586.088 388.865 585.991 392.108 585.784C393.528 585.695 394.951 585.888 396.297 586.351C397.642 586.814 398.884 587.539 399.95 588.484C401.017 589.428 401.888 590.575 402.513 591.858C403.138 593.14 403.506 594.534 403.594 595.959C403.683 597.385 403.491 598.814 403.03 600.164C402.569 601.515 401.847 602.762 400.906 603.833C399.965 604.904 398.823 605.778 397.545 606.406C396.267 607.033 394.879 607.402 393.459 607.491C389.751 607.687 386.065 607.795 382.378 607.795Z"/>
<path d="M559.557 514.889C557.566 514.889 555.615 514.337 553.916 513.295C552.218 512.252 550.84 510.759 549.933 508.98C549.027 507.201 548.627 505.205 548.778 503.212C548.929 501.219 549.625 499.307 550.789 497.686C556.804 489.291 562.106 480.404 566.638 471.117C567.919 468.555 570.158 466.606 572.865 465.695C575.573 464.784 578.529 464.985 581.089 466.255C583.65 467.525 585.605 469.761 586.529 472.473C587.453 475.186 587.271 478.155 586.022 480.733C580.96 491.094 575.04 501.009 568.325 510.374C567.324 511.77 566.007 512.908 564.483 513.693C562.959 514.478 561.27 514.888 559.557 514.889Z"/>
<path d="M444.779 435.539C442.568 435.538 440.411 434.856 438.598 433.585C436.786 432.315 435.405 430.517 434.641 428.434C433.878 426.351 433.769 424.083 434.329 421.936C434.889 419.789 436.091 417.866 437.773 416.426L480.563 379.872L437.773 343.317C436.692 342.391 435.804 341.26 435.158 339.988C434.512 338.717 434.122 337.331 434.01 335.908C433.898 334.486 434.067 333.055 434.505 331.697C434.944 330.34 435.645 329.083 436.568 327.998C437.491 326.912 438.617 326.02 439.884 325.372C441.15 324.724 442.531 324.332 443.948 324.22C445.365 324.107 446.79 324.276 448.142 324.717C449.494 325.157 450.746 325.861 451.827 326.788L504.281 371.602C505.476 372.62 506.435 373.888 507.093 375.316C507.751 376.744 508.091 378.299 508.091 379.872C508.091 381.445 507.751 383 507.093 384.428C506.435 385.856 505.476 387.123 504.281 388.142L451.827 432.956C449.86 434.635 447.36 435.551 444.779 435.539Z"/>
<path d="M319.979 435.539C317.408 435.543 314.921 434.627 312.962 432.956L260.508 388.142C259.314 387.123 258.355 385.856 257.697 384.428C257.039 383 256.698 381.445 256.698 379.872C256.698 378.299 257.039 376.744 257.697 375.316C258.355 373.888 259.314 372.62 260.508 371.602L312.962 326.788C315.146 324.916 317.98 323.993 320.842 324.22C323.703 324.447 326.358 325.806 328.222 327.998C330.085 330.19 331.005 333.035 330.779 335.908C330.553 338.781 329.2 341.446 327.016 343.317L284.195 379.872L326.984 416.426C328.666 417.866 329.868 419.789 330.429 421.936C330.989 424.083 330.88 426.351 330.116 428.434C329.353 430.517 327.972 432.315 326.159 433.585C324.346 434.856 322.189 435.538 319.979 435.539Z"/>
<path d="M345.946 489.329C344.661 489.325 343.388 489.093 342.184 488.646C339.496 487.645 337.314 485.613 336.118 482.998C334.922 480.383 334.809 477.397 335.805 474.699L408.681 277.502C409.178 276.166 409.932 274.941 410.9 273.897C411.869 272.854 413.032 272.012 414.325 271.42C415.617 270.827 417.013 270.497 418.433 270.446C419.853 270.396 421.269 270.627 422.6 271.125C423.931 271.624 425.151 272.381 426.19 273.354C427.23 274.326 428.068 275.494 428.658 276.792C429.248 278.089 429.577 279.491 429.628 280.916C429.678 282.342 429.448 283.763 428.951 285.099L356.075 482.242C355.31 484.32 353.928 486.113 352.118 487.38C350.307 488.647 348.153 489.327 345.946 489.329Z"/>
<path d="M430.469 763H337.531C332.559 762.964 327.747 761.23 323.885 758.085C320.024 754.939 317.343 750.568 316.284 745.691L306.219 695.257C275.175 687.496 245.466 675.107 218.081 658.502L175.478 686.94C171.334 689.719 166.363 690.982 161.401 690.518C156.439 690.053 151.787 687.889 148.226 684.389L82.5189 618.324C78.9759 614.72 76.7881 609.993 76.3288 604.95C75.8694 599.907 77.167 594.861 80 590.671L108.229 548.161C91.6537 520.667 79.3213 490.811 71.6509 459.609L21.3714 449.516C16.4872 448.47 12.1043 445.783 8.94607 441.899C5.78788 438.015 4.0432 433.166 4 428.152V334.848C4.03614 329.856 5.76269 325.025 8.89593 321.148C12.0292 317.272 16.3827 314.58 21.2411 313.517L71.5749 303.38C79.2469 272.184 91.5754 242.333 108.142 214.839L79.7611 172.22C76.9875 168.057 75.726 163.063 76.1886 158.077C76.6513 153.09 78.81 148.416 82.3017 144.839L148.107 78.7852C151.69 75.2224 156.394 73.0184 161.415 72.5492C166.436 72.0801 171.464 73.3749 175.641 76.2128L217.983 104.607C245.387 87.9733 275.123 75.5652 306.198 67.798L316.251 17.44C317.294 12.5365 319.97 8.13626 323.839 4.9656C327.707 1.79494 332.537 0.0433675 337.531 0H430.469C435.441 0.0362834 440.253 1.76965 444.115 4.91525C447.976 8.06086 450.657 12.4316 451.716 17.3092L461.781 67.7435C492.907 75.478 522.688 87.8955 550.114 104.575L592.457 76.0711C596.603 73.2865 601.578 72.02 606.545 72.4845C611.512 72.949 616.168 75.1162 619.73 78.6217L685.535 144.676C689.095 148.266 691.298 152.99 691.766 158.034C692.234 163.079 690.937 168.129 688.098 172.318L659.869 214.926C676.415 242.412 688.756 272.236 696.479 303.401L746.542 313.484C751.442 314.513 755.845 317.192 759.02 321.078C762.195 324.964 763.952 329.822 764 334.848V428.152C763.964 433.144 762.237 437.975 759.104 441.852C755.971 445.728 751.617 448.42 746.759 449.483L696.523 459.598C688.8 490.764 676.459 520.588 659.913 548.074L688.25 590.845C691.016 595.007 692.273 599.998 691.808 604.979C691.344 609.961 689.186 614.631 685.698 618.204L619.893 684.269C616.309 687.83 611.606 690.033 606.585 690.502C601.564 690.971 596.536 689.678 592.359 686.842L550.017 658.425C522.607 675.099 492.845 687.517 461.737 695.257L451.749 745.56C450.706 750.464 448.03 754.864 444.161 758.034C440.293 761.205 435.463 762.957 430.469 763ZM217.886 634.631C219.918 634.625 221.91 635.2 223.629 636.287C252.574 654.746 284.473 668.053 317.923 675.626C319.97 676.091 321.839 677.141 323.303 678.65C324.767 680.159 325.765 682.061 326.175 684.128L337.542 741.2H430.371L441.858 684.128C442.268 682.06 443.267 680.157 444.734 678.647C446.2 677.138 448.071 676.089 450.12 675.626C483.571 668.092 515.465 654.785 544.382 636.298C546.185 635.194 548.261 634.621 550.373 634.646C552.486 634.671 554.548 635.293 556.325 636.44L604.519 668.813L670.183 602.912L638.524 555.224C638.115 554.728 637.752 554.195 637.438 553.633C636.493 551.929 636.021 550.001 636.07 548.051C636.12 546.102 636.69 544.201 637.721 542.548C656.111 513.491 669.367 481.465 676.904 447.881C677.367 445.826 678.414 443.95 679.917 442.48C681.419 441.01 683.315 440.009 685.373 439.597L742.286 428.141V334.848L685.438 323.403C683.38 322.991 681.485 321.99 679.982 320.52C678.479 319.05 677.432 317.174 676.969 315.119C669.432 281.535 656.176 249.509 637.786 220.452C636.747 218.804 636.167 216.906 636.108 214.956C636.049 213.006 636.512 211.076 637.449 209.367C637.827 208.671 638.283 208.02 638.806 207.427L670.162 160.088L604.53 94.1433L556.368 126.56C554.592 127.709 552.53 128.332 550.417 128.358C548.304 128.383 546.227 127.809 544.425 126.702C515.508 108.215 483.614 94.9079 450.163 87.3744C448.115 86.9112 446.244 85.8616 444.777 84.3525C443.311 82.8435 442.312 80.9399 441.901 78.8724L430.458 21.8H337.531L326.142 78.8724C325.732 80.9385 324.735 82.8411 323.27 84.35C321.806 85.8589 319.938 86.9094 317.891 87.3744C284.44 94.9467 252.541 108.254 223.597 126.712C221.822 127.841 219.759 128.428 217.659 128.403C215.558 128.378 213.51 127.741 211.762 126.571L163.448 94.1978L97.7731 160.088L130.073 208.571C131.239 210.326 131.873 212.382 131.898 214.491C131.923 216.6 131.338 218.671 130.214 220.452C111.83 249.489 98.6047 281.509 91.1286 315.086C90.6482 317.259 89.5168 319.232 87.8864 320.74C86.2561 322.249 84.2049 323.22 82.0086 323.523L25.7143 334.859V428.152L82.3777 439.553C84.4946 439.929 86.4544 440.922 88.0126 442.409C89.5707 443.896 90.6583 445.81 91.1394 447.914C98.616 481.491 111.841 513.511 130.225 542.548C131.348 544.327 131.934 546.395 131.911 548.502C131.888 550.609 131.257 552.663 130.095 554.418L97.9577 602.912L163.481 668.868L210.981 637.061C212.934 635.49 215.361 634.633 217.864 634.631H217.886Z"/>
</mask>
<path d="M477.849 585.437C475.401 585.437 473.027 584.604 471.112 583.073C469.198 581.543 467.858 579.406 467.311 577.011C466.763 574.616 467.041 572.106 468.099 569.891C469.157 567.676 470.933 565.886 473.135 564.815C482.445 560.31 491.347 555.001 499.741 548.947C502.07 547.385 504.913 546.791 507.67 547.291C510.427 547.791 512.883 549.346 514.52 551.629C516.157 553.912 516.848 556.743 516.446 559.527C516.045 562.311 514.582 564.829 512.367 566.552C502.957 573.328 492.981 579.276 482.551 584.33C481.087 585.05 479.479 585.429 477.849 585.437Z" fill="#EAEAEA"/>
<path d="M382.378 607.795C337.477 607.795 293.583 594.428 256.249 569.383C218.914 544.339 189.816 508.742 172.633 467.094C155.449 425.447 150.954 379.619 159.713 335.406C168.473 291.194 190.096 250.582 221.846 218.706C253.596 186.83 294.049 165.123 338.087 156.328C382.126 147.534 427.774 152.047 469.258 169.298C510.741 186.549 546.198 215.763 571.144 253.245C596.09 290.726 609.405 334.793 609.405 379.872C609.405 383.682 609.286 387.372 609.059 391.181C608.838 394.037 607.518 396.695 605.379 398.591C603.24 400.487 600.45 401.473 597.6 401.34C594.738 401.161 592.065 399.849 590.167 397.692C588.27 395.534 587.303 392.708 587.481 389.835C587.686 386.482 587.784 383.226 587.784 379.872C587.784 339.086 575.737 299.216 553.167 265.304C530.596 231.392 498.516 204.961 460.983 189.353C423.451 173.745 382.15 169.661 342.306 177.618C302.461 185.575 265.861 205.215 237.135 234.055C208.408 262.895 188.845 299.639 180.92 339.641C172.994 379.643 177.062 421.106 192.608 458.787C208.155 496.469 234.482 528.675 268.261 551.335C302.04 573.994 341.753 586.088 382.378 586.088C385.621 586.088 388.865 585.991 392.108 585.784C393.528 585.695 394.951 585.888 396.297 586.351C397.642 586.814 398.884 587.539 399.95 588.484C401.017 589.428 401.888 590.575 402.513 591.858C403.138 593.14 403.506 594.534 403.594 595.959C403.683 597.385 403.491 598.814 403.03 600.164C402.569 601.515 401.847 602.762 400.906 603.833C399.965 604.904 398.823 605.778 397.545 606.406C396.267 607.033 394.879 607.402 393.459 607.491C389.751 607.687 386.065 607.795 382.378 607.795Z" fill="#EAEAEA"/>
<path d="M559.557 514.889C557.566 514.889 555.615 514.337 553.916 513.295C552.218 512.252 550.84 510.759 549.933 508.98C549.027 507.201 548.627 505.205 548.778 503.212C548.929 501.219 549.625 499.307 550.789 497.686C556.804 489.291 562.106 480.404 566.638 471.117C567.919 468.555 570.158 466.606 572.865 465.695C575.573 464.784 578.529 464.985 581.089 466.255C583.65 467.525 585.605 469.761 586.529 472.473C587.453 475.186 587.271 478.155 586.022 480.733C580.96 491.094 575.04 501.009 568.325 510.374C567.324 511.77 566.007 512.908 564.483 513.693C562.959 514.478 561.27 514.888 559.557 514.889Z" fill="#EAEAEA"/>
<path d="M444.779 435.539C442.568 435.538 440.411 434.856 438.598 433.585C436.786 432.315 435.405 430.517 434.641 428.434C433.878 426.351 433.769 424.083 434.329 421.936C434.889 419.789 436.091 417.866 437.773 416.426L480.563 379.872L437.773 343.317C436.692 342.391 435.804 341.26 435.158 339.988C434.512 338.717 434.122 337.331 434.01 335.908C433.898 334.486 434.067 333.055 434.505 331.697C434.944 330.34 435.645 329.083 436.568 327.998C437.491 326.912 438.617 326.02 439.884 325.372C441.15 324.724 442.531 324.332 443.948 324.22C445.365 324.107 446.79 324.276 448.142 324.717C449.494 325.157 450.746 325.861 451.827 326.788L504.281 371.602C505.476 372.62 506.435 373.888 507.093 375.316C507.751 376.744 508.091 378.299 508.091 379.872C508.091 381.445 507.751 383 507.093 384.428C506.435 385.856 505.476 387.123 504.281 388.142L451.827 432.956C449.86 434.635 447.36 435.551 444.779 435.539Z" fill="#EAEAEA"/>
<path d="M319.979 435.539C317.408 435.543 314.921 434.627 312.962 432.956L260.508 388.142C259.314 387.123 258.355 385.856 257.697 384.428C257.039 383 256.698 381.445 256.698 379.872C256.698 378.299 257.039 376.744 257.697 375.316C258.355 373.888 259.314 372.62 260.508 371.602L312.962 326.788C315.146 324.916 317.98 323.993 320.842 324.22C323.703 324.447 326.358 325.806 328.222 327.998C330.085 330.19 331.005 333.035 330.779 335.908C330.553 338.781 329.2 341.446 327.016 343.317L284.195 379.872L326.984 416.426C328.666 417.866 329.868 419.789 330.429 421.936C330.989 424.083 330.88 426.351 330.116 428.434C329.353 430.517 327.972 432.315 326.159 433.585C324.346 434.856 322.189 435.538 319.979 435.539Z" fill="#EAEAEA"/>
<path d="M345.946 489.329C344.661 489.325 343.388 489.093 342.184 488.646C339.496 487.645 337.314 485.613 336.118 482.998C334.922 480.383 334.809 477.397 335.805 474.699L408.681 277.502C409.178 276.166 409.932 274.941 410.9 273.897C411.869 272.854 413.032 272.012 414.325 271.42C415.617 270.827 417.013 270.497 418.433 270.446C419.853 270.396 421.269 270.627 422.6 271.125C423.931 271.624 425.151 272.381 426.19 273.354C427.23 274.326 428.068 275.494 428.658 276.792C429.248 278.089 429.577 279.491 429.628 280.916C429.678 282.342 429.448 283.763 428.951 285.099L356.075 482.242C355.31 484.32 353.928 486.113 352.118 487.38C350.307 488.647 348.153 489.327 345.946 489.329Z" fill="#EAEAEA"/>
<path d="M430.469 763H337.531C332.559 762.964 327.747 761.23 323.885 758.085C320.024 754.939 317.343 750.568 316.284 745.691L306.219 695.257C275.175 687.496 245.466 675.107 218.081 658.502L175.478 686.94C171.334 689.719 166.363 690.982 161.401 690.518C156.439 690.053 151.787 687.889 148.226 684.389L82.5189 618.324C78.9759 614.72 76.7881 609.993 76.3288 604.95C75.8694 599.907 77.167 594.861 80 590.671L108.229 548.161C91.6537 520.667 79.3213 490.811 71.6509 459.609L21.3714 449.516C16.4872 448.47 12.1043 445.783 8.94607 441.899C5.78788 438.015 4.0432 433.166 4 428.152V334.848C4.03614 329.856 5.76269 325.025 8.89593 321.148C12.0292 317.272 16.3827 314.58 21.2411 313.517L71.5749 303.38C79.2469 272.184 91.5754 242.333 108.142 214.839L79.7611 172.22C76.9875 168.057 75.726 163.063 76.1886 158.077C76.6513 153.09 78.81 148.416 82.3017 144.839L148.107 78.7852C151.69 75.2224 156.394 73.0184 161.415 72.5492C166.436 72.0801 171.464 73.3749 175.641 76.2128L217.983 104.607C245.387 87.9733 275.123 75.5652 306.198 67.798L316.251 17.44C317.294 12.5365 319.97 8.13626 323.839 4.9656C327.707 1.79494 332.537 0.0433675 337.531 0H430.469C435.441 0.0362834 440.253 1.76965 444.115 4.91525C447.976 8.06086 450.657 12.4316 451.716 17.3092L461.781 67.7435C492.907 75.478 522.688 87.8955 550.114 104.575L592.457 76.0711C596.603 73.2865 601.578 72.02 606.545 72.4845C611.512 72.949 616.168 75.1162 619.73 78.6217L685.535 144.676C689.095 148.266 691.298 152.99 691.766 158.034C692.234 163.079 690.937 168.129 688.098 172.318L659.869 214.926C676.415 242.412 688.756 272.236 696.479 303.401L746.542 313.484C751.442 314.513 755.845 317.192 759.02 321.078C762.195 324.964 763.952 329.822 764 334.848V428.152C763.964 433.144 762.237 437.975 759.104 441.852C755.971 445.728 751.617 448.42 746.759 449.483L696.523 459.598C688.8 490.764 676.459 520.588 659.913 548.074L688.25 590.845C691.016 595.007 692.273 599.998 691.808 604.979C691.344 609.961 689.186 614.631 685.698 618.204L619.893 684.269C616.309 687.83 611.606 690.033 606.585 690.502C601.564 690.971 596.536 689.678 592.359 686.842L550.017 658.425C522.607 675.099 492.845 687.517 461.737 695.257L451.749 745.56C450.706 750.464 448.03 754.864 444.161 758.034C440.293 761.205 435.463 762.957 430.469 763ZM217.886 634.631C219.918 634.625 221.91 635.2 223.629 636.287C252.574 654.746 284.473 668.053 317.923 675.626C319.97 676.091 321.839 677.141 323.303 678.65C324.767 680.159 325.765 682.061 326.175 684.128L337.542 741.2H430.371L441.858 684.128C442.268 682.06 443.267 680.157 444.734 678.647C446.2 677.138 448.071 676.089 450.12 675.626C483.571 668.092 515.465 654.785 544.382 636.298C546.185 635.194 548.261 634.621 550.373 634.646C552.486 634.671 554.548 635.293 556.325 636.44L604.519 668.813L670.183 602.912L638.524 555.224C638.115 554.728 637.752 554.195 637.438 553.633C636.493 551.929 636.021 550.001 636.07 548.051C636.12 546.102 636.69 544.201 637.721 542.548C656.111 513.491 669.367 481.465 676.904 447.881C677.367 445.826 678.414 443.95 679.917 442.48C681.419 441.01 683.315 440.009 685.373 439.597L742.286 428.141V334.848L685.438 323.403C683.38 322.991 681.485 321.99 679.982 320.52C678.479 319.05 677.432 317.174 676.969 315.119C669.432 281.535 656.176 249.509 637.786 220.452C636.747 218.804 636.167 216.906 636.108 214.956C636.049 213.006 636.512 211.076 637.449 209.367C637.827 208.671 638.283 208.02 638.806 207.427L670.162 160.088L604.53 94.1433L556.368 126.56C554.592 127.709 552.53 128.332 550.417 128.358C548.304 128.383 546.227 127.809 544.425 126.702C515.508 108.215 483.614 94.9079 450.163 87.3744C448.115 86.9112 446.244 85.8616 444.777 84.3525C443.311 82.8435 442.312 80.9399 441.901 78.8724L430.458 21.8H337.531L326.142 78.8724C325.732 80.9385 324.735 82.8411 323.27 84.35C321.806 85.8589 319.938 86.9094 317.891 87.3744C284.44 94.9467 252.541 108.254 223.597 126.712C221.822 127.841 219.759 128.428 217.659 128.403C215.558 128.378 213.51 127.741 211.762 126.571L163.448 94.1978L97.7731 160.088L130.073 208.571C131.239 210.326 131.873 212.382 131.898 214.491C131.923 216.6 131.338 218.671 130.214 220.452C111.83 249.489 98.6047 281.509 91.1286 315.086C90.6482 317.259 89.5168 319.232 87.8864 320.74C86.2561 322.249 84.2049 323.22 82.0086 323.523L25.7143 334.859V428.152L82.3777 439.553C84.4946 439.929 86.4544 440.922 88.0126 442.409C89.5707 443.896 90.6583 445.81 91.1394 447.914C98.616 481.491 111.841 513.511 130.225 542.548C131.348 544.327 131.934 546.395 131.911 548.502C131.888 550.609 131.257 552.663 130.095 554.418L97.9577 602.912L163.481 668.868L210.981 637.061C212.934 635.49 215.361 634.633 217.864 634.631H217.886Z" fill="#EAEAEA"/>
<path d="M477.849 585.437C475.401 585.437 473.027 584.604 471.112 583.073C469.198 581.543 467.858 579.406 467.311 577.011C466.763 574.616 467.041 572.106 468.099 569.891C469.157 567.676 470.933 565.886 473.135 564.815C482.445 560.31 491.347 555.001 499.741 548.947C502.07 547.385 504.913 546.791 507.67 547.291C510.427 547.791 512.883 549.346 514.52 551.629C516.157 553.912 516.848 556.743 516.446 559.527C516.045 562.311 514.582 564.829 512.367 566.552C502.957 573.328 492.981 579.276 482.551 584.33C481.087 585.05 479.479 585.429 477.849 585.437Z" stroke="black" stroke-width="2" mask="url(#path-1-inside-1_33401_3)"/>
<path d="M382.378 607.795C337.477 607.795 293.583 594.428 256.249 569.383C218.914 544.339 189.816 508.742 172.633 467.094C155.449 425.447 150.954 379.619 159.713 335.406C168.473 291.194 190.096 250.582 221.846 218.706C253.596 186.83 294.049 165.123 338.087 156.328C382.126 147.534 427.774 152.047 469.258 169.298C510.741 186.549 546.198 215.763 571.144 253.245C596.09 290.726 609.405 334.793 609.405 379.872C609.405 383.682 609.286 387.372 609.059 391.181C608.838 394.037 607.518 396.695 605.379 398.591C603.24 400.487 600.45 401.473 597.6 401.34C594.738 401.161 592.065 399.849 590.167 397.692C588.27 395.534 587.303 392.708 587.481 389.835C587.686 386.482 587.784 383.226 587.784 379.872C587.784 339.086 575.737 299.216 553.167 265.304C530.596 231.392 498.516 204.961 460.983 189.353C423.451 173.745 382.15 169.661 342.306 177.618C302.461 185.575 265.861 205.215 237.135 234.055C208.408 262.895 188.845 299.639 180.92 339.641C172.994 379.643 177.062 421.106 192.608 458.787C208.155 496.469 234.482 528.675 268.261 551.335C302.04 573.994 341.753 586.088 382.378 586.088C385.621 586.088 388.865 585.991 392.108 585.784C393.528 585.695 394.951 585.888 396.297 586.351C397.642 586.814 398.884 587.539 399.95 588.484C401.017 589.428 401.888 590.575 402.513 591.858C403.138 593.14 403.506 594.534 403.594 595.959C403.683 597.385 403.491 598.814 403.03 600.164C402.569 601.515 401.847 602.762 400.906 603.833C399.965 604.904 398.823 605.778 397.545 606.406C396.267 607.033 394.879 607.402 393.459 607.491C389.751 607.687 386.065 607.795 382.378 607.795Z" stroke="black" stroke-width="2" mask="url(#path-1-inside-1_33401_3)"/>
<path d="M559.557 514.889C557.566 514.889 555.615 514.337 553.916 513.295C552.218 512.252 550.84 510.759 549.933 508.98C549.027 507.201 548.627 505.205 548.778 503.212C548.929 501.219 549.625 499.307 550.789 497.686C556.804 489.291 562.106 480.404 566.638 471.117C567.919 468.555 570.158 466.606 572.865 465.695C575.573 464.784 578.529 464.985 581.089 466.255C583.65 467.525 585.605 469.761 586.529 472.473C587.453 475.186 587.271 478.155 586.022 480.733C580.96 491.094 575.04 501.009 568.325 510.374C567.324 511.77 566.007 512.908 564.483 513.693C562.959 514.478 561.27 514.888 559.557 514.889Z" stroke="black" stroke-width="2" mask="url(#path-1-inside-1_33401_3)"/>
<path d="M444.779 435.539C442.568 435.538 440.411 434.856 438.598 433.585C436.786 432.315 435.405 430.517 434.641 428.434C433.878 426.351 433.769 424.083 434.329 421.936C434.889 419.789 436.091 417.866 437.773 416.426L480.563 379.872L437.773 343.317C436.692 342.391 435.804 341.26 435.158 339.988C434.512 338.717 434.122 337.331 434.01 335.908C433.898 334.486 434.067 333.055 434.505 331.697C434.944 330.34 435.645 329.083 436.568 327.998C437.491 326.912 438.617 326.02 439.884 325.372C441.15 324.724 442.531 324.332 443.948 324.22C445.365 324.107 446.79 324.276 448.142 324.717C449.494 325.157 450.746 325.861 451.827 326.788L504.281 371.602C505.476 372.62 506.435 373.888 507.093 375.316C507.751 376.744 508.091 378.299 508.091 379.872C508.091 381.445 507.751 383 507.093 384.428C506.435 385.856 505.476 387.123 504.281 388.142L451.827 432.956C449.86 434.635 447.36 435.551 444.779 435.539Z" stroke="black" stroke-width="2" mask="url(#path-1-inside-1_33401_3)"/>
<path d="M319.979 435.539C317.408 435.543 314.921 434.627 312.962 432.956L260.508 388.142C259.314 387.123 258.355 385.856 257.697 384.428C257.039 383 256.698 381.445 256.698 379.872C256.698 378.299 257.039 376.744 257.697 375.316C258.355 373.888 259.314 372.62 260.508 371.602L312.962 326.788C315.146 324.916 317.98 323.993 320.842 324.22C323.703 324.447 326.358 325.806 328.222 327.998C330.085 330.19 331.005 333.035 330.779 335.908C330.553 338.781 329.2 341.446 327.016 343.317L284.195 379.872L326.984 416.426C328.666 417.866 329.868 419.789 330.429 421.936C330.989 424.083 330.88 426.351 330.116 428.434C329.353 430.517 327.972 432.315 326.159 433.585C324.346 434.856 322.189 435.538 319.979 435.539Z" stroke="black" stroke-width="2" mask="url(#path-1-inside-1_33401_3)"/>
<path d="M345.946 489.329C344.661 489.325 343.388 489.093 342.184 488.646C339.496 487.645 337.314 485.613 336.118 482.998C334.922 480.383 334.809 477.397 335.805 474.699L408.681 277.502C409.178 276.166 409.932 274.941 410.9 273.897C411.869 272.854 413.032 272.012 414.325 271.42C415.617 270.827 417.013 270.497 418.433 270.446C419.853 270.396 421.269 270.627 422.6 271.125C423.931 271.624 425.151 272.381 426.19 273.354C427.23 274.326 428.068 275.494 428.658 276.792C429.248 278.089 429.577 279.491 429.628 280.916C429.678 282.342 429.448 283.763 428.951 285.099L356.075 482.242C355.31 484.32 353.928 486.113 352.118 487.38C350.307 488.647 348.153 489.327 345.946 489.329Z" stroke="black" stroke-width="2" mask="url(#path-1-inside-1_33401_3)"/>
<path d="M430.469 763H337.531C332.559 762.964 327.747 761.23 323.885 758.085C320.024 754.939 317.343 750.568 316.284 745.691L306.219 695.257C275.175 687.496 245.466 675.107 218.081 658.502L175.478 686.94C171.334 689.719 166.363 690.982 161.401 690.518C156.439 690.053 151.787 687.889 148.226 684.389L82.5189 618.324C78.9759 614.72 76.7881 609.993 76.3288 604.95C75.8694 599.907 77.167 594.861 80 590.671L108.229 548.161C91.6537 520.667 79.3213 490.811 71.6509 459.609L21.3714 449.516C16.4872 448.47 12.1043 445.783 8.94607 441.899C5.78788 438.015 4.0432 433.166 4 428.152V334.848C4.03614 329.856 5.76269 325.025 8.89593 321.148C12.0292 317.272 16.3827 314.58 21.2411 313.517L71.5749 303.38C79.2469 272.184 91.5754 242.333 108.142 214.839L79.7611 172.22C76.9875 168.057 75.726 163.063 76.1886 158.077C76.6513 153.09 78.81 148.416 82.3017 144.839L148.107 78.7852C151.69 75.2224 156.394 73.0184 161.415 72.5492C166.436 72.0801 171.464 73.3749 175.641 76.2128L217.983 104.607C245.387 87.9733 275.123 75.5652 306.198 67.798L316.251 17.44C317.294 12.5365 319.97 8.13626 323.839 4.9656C327.707 1.79494 332.537 0.0433675 337.531 0H430.469C435.441 0.0362834 440.253 1.76965 444.115 4.91525C447.976 8.06086 450.657 12.4316 451.716 17.3092L461.781 67.7435C492.907 75.478 522.688 87.8955 550.114 104.575L592.457 76.0711C596.603 73.2865 601.578 72.02 606.545 72.4845C611.512 72.949 616.168 75.1162 619.73 78.6217L685.535 144.676C689.095 148.266 691.298 152.99 691.766 158.034C692.234 163.079 690.937 168.129 688.098 172.318L659.869 214.926C676.415 242.412 688.756 272.236 696.479 303.401L746.542 313.484C751.442 314.513 755.845 317.192 759.02 321.078C762.195 324.964 763.952 329.822 764 334.848V428.152C763.964 433.144 762.237 437.975 759.104 441.852C755.971 445.728 751.617 448.42 746.759 449.483L696.523 459.598C688.8 490.764 676.459 520.588 659.913 548.074L688.25 590.845C691.016 595.007 692.273 599.998 691.808 604.979C691.344 609.961 689.186 614.631 685.698 618.204L619.893 684.269C616.309 687.83 611.606 690.033 606.585 690.502C601.564 690.971 596.536 689.678 592.359 686.842L550.017 658.425C522.607 675.099 492.845 687.517 461.737 695.257L451.749 745.56C450.706 750.464 448.03 754.864 444.161 758.034C440.293 761.205 435.463 762.957 430.469 763ZM217.886 634.631C219.918 634.625 221.91 635.2 223.629 636.287C252.574 654.746 284.473 668.053 317.923 675.626C319.97 676.091 321.839 677.141 323.303 678.65C324.767 680.159 325.765 682.061 326.175 684.128L337.542 741.2H430.371L441.858 684.128C442.268 682.06 443.267 680.157 444.734 678.647C446.2 677.138 448.071 676.089 450.12 675.626C483.571 668.092 515.465 654.785 544.382 636.298C546.185 635.194 548.261 634.621 550.373 634.646C552.486 634.671 554.548 635.293 556.325 636.44L604.519 668.813L670.183 602.912L638.524 555.224C638.115 554.728 637.752 554.195 637.438 553.633C636.493 551.929 636.021 550.001 636.07 548.051C636.12 546.102 636.69 544.201 637.721 542.548C656.111 513.491 669.367 481.465 676.904 447.881C677.367 445.826 678.414 443.95 679.917 442.48C681.419 441.01 683.315 440.009 685.373 439.597L742.286 428.141V334.848L685.438 323.403C683.38 322.991 681.485 321.99 679.982 320.52C678.479 319.05 677.432 317.174 676.969 315.119C669.432 281.535 656.176 249.509 637.786 220.452C636.747 218.804 636.167 216.906 636.108 214.956C636.049 213.006 636.512 211.076 637.449 209.367C637.827 208.671 638.283 208.02 638.806 207.427L670.162 160.088L604.53 94.1433L556.368 126.56C554.592 127.709 552.53 128.332 550.417 128.358C548.304 128.383 546.227 127.809 544.425 126.702C515.508 108.215 483.614 94.9079 450.163 87.3744C448.115 86.9112 446.244 85.8616 444.777 84.3525C443.311 82.8435 442.312 80.9399 441.901 78.8724L430.458 21.8H337.531L326.142 78.8724C325.732 80.9385 324.735 82.8411 323.27 84.35C321.806 85.8589 319.938 86.9094 317.891 87.3744C284.44 94.9467 252.541 108.254 223.597 126.712C221.822 127.841 219.759 128.428 217.659 128.403C215.558 128.378 213.51 127.741 211.762 126.571L163.448 94.1978L97.7731 160.088L130.073 208.571C131.239 210.326 131.873 212.382 131.898 214.491C131.923 216.6 131.338 218.671 130.214 220.452C111.83 249.489 98.6047 281.509 91.1286 315.086C90.6482 317.259 89.5168 319.232 87.8864 320.74C86.2561 322.249 84.2049 323.22 82.0086 323.523L25.7143 334.859V428.152L82.3777 439.553C84.4946 439.929 86.4544 440.922 88.0126 442.409C89.5707 443.896 90.6583 445.81 91.1394 447.914C98.616 481.491 111.841 513.511 130.225 542.548C131.348 544.327 131.934 546.395 131.911 548.502C131.888 550.609 131.257 552.663 130.095 554.418L97.9577 602.912L163.481 668.868L210.981 637.061C212.934 635.49 215.361 634.633 217.864 634.631H217.886Z" stroke="black" stroke-width="2" mask="url(#path-1-inside-1_33401_3)"/>
</g>
<defs>
<filter id="filter0_d_33401_3" x="0" y="0" width="768" height="771" filterUnits="userSpaceOnUse" color-interpolation-filters="sRGB">
<feFlood flood-opacity="0" result="BackgroundImageFix"/>
<feColorMatrix in="SourceAlpha" type="matrix" values="0 0 0 0 0 0 0 0 0 0 0 0 0 0 0 0 0 0 127 0" result="hardAlpha"/>
<feOffset dy="4"/>
<feGaussianBlur stdDeviation="2"/>
<feComposite in2="hardAlpha" operator="out"/>
<feColorMatrix type="matrix" values="0 0 0 0 0 0 0 0 0 0 0 0 0 0 0 0 0 0 0.25 0"/>
<feBlend mode="normal" in2="BackgroundImageFix" result="effect1_dropShadow_33401_3"/>
<feBlend mode="normal" in="SourceGraphic" in2="effect1_dropShadow_33401_3" result="shape"/>
</filter>
</defs>
</svg>
