<?xml version="1.0" standalone="no"?>
<!DOCTYPE svg PUBLIC "-//W3C//DTD SVG 20010904//EN"
 "http://www.w3.org/TR/2001/REC-SVG-20010904/DTD/svg10.dtd">
<svg version="1.0" xmlns="http://www.w3.org/2000/svg"
 width="250.000000pt" height="250.000000pt" viewBox="0 0 250.000000 250.000000"
 preserveAspectRatio="xMidYMid meet">
<metadata>
Created by potrace 1.14, written by Peter Selinger 2001-2017
</metadata>
<g transform="translate(0.000000,250.000000) scale(0.100000,-0.100000)"
fill="#000000" stroke="none">
<path d="M0 1250 l0 -1250 1250 0 1250 0 0 1250 0 1250 -1250 0 -1250 0 0
-1250z m1080 165 c91 -151 168 -275 171 -275 4 0 80 124 170 275 l163 275 83
0 83 0 0 -313 c0 -173 3 -375 7 -450 l6 -137 -101 0 -102 0 -2 265 -3 266
-130 -218 -130 -218 -41 -3 c-29 -2 -44 2 -56 15 -9 10 -70 108 -137 218
l-121 200 0 -263 0 -262 -100 0 -100 0 0 443 c0 244 3 447 7 450 3 4 43 7 87
7 l81 0 165 -275z"/>
</g>
</svg>
