<?xml version="1.0" standalone="no"?>
<!DOCTYPE svg PUBLIC "-//W3C//DTD SVG 20010904//EN"
 "http://www.w3.org/TR/2001/REC-SVG-20010904/DTD/svg10.dtd">
<svg version="1.0" xmlns="http://www.w3.org/2000/svg"
 width="800.000000pt" height="800.000000pt" viewBox="0 0 800.000000 800.000000"
 preserveAspectRatio="xMidYMid meet">
<metadata>
Created by potrace 1.14, written by Peter Selinger 2001-2017
</metadata>
<g transform="translate(0.000000,800.000000) scale(0.100000,-0.100000)"
fill="#000000" stroke="none">
<path d="M2002 4003 l3 -2798 1160 1 c1040 0 1299 4 1372 18 12 3 47 7 79 11
92 10 321 64 449 107 144 48 322 135 447 219 51 34 98 67 104 73 6 6 30 26 53
45 288 234 483 607 527 1011 14 122 8 352 -10 440 -3 14 -8 39 -12 55 -24 117
-97 279 -180 396 -155 221 -501 434 -820 504 l-76 18 48 19 c101 41 272 127
339 170 285 183 477 448 540 744 68 319 18 697 -131 984 -88 169 -223 319
-384 425 -166 108 -439 222 -599 250 -19 3 -37 8 -41 10 -4 2 -20 7 -36 9 -16
3 -38 8 -49 10 -348 70 -329 69 -1618 73 l-1167 4 2 -2798z m2317 1893 c175
-31 331 -112 429 -222 67 -74 123 -193 138 -292 3 -21 9 -57 14 -81 11 -60 5
-274 -10 -341 -16 -74 -46 -156 -77 -209 -79 -136 -228 -242 -408 -292 -180
-49 -279 -56 -792 -58 l-463 -2 0 48 c-1 67 -1 1345 0 1416 l0 59 538 -5 c442
-3 553 -7 631 -21z m116 -2299 c260 -54 395 -126 500 -263 49 -63 72 -118 101
-229 19 -77 22 -110 19 -225 -4 -144 -5 -156 -36 -268 -79 -294 -318 -468
-708 -516 -50 -7 -1151 -9 -1157 -3 -3 3 -7 1270 -4 1490 l0 38 608 -4 c483
-4 621 -8 677 -20z"/>
</g>
</svg>
